<?xml version="1.0" encoding="UTF-8"?>
<svg xmlns="http://www.w3.org/2000/svg" xmlns:xlink="http://www.w3.org/1999/xlink" width="97px" height="50px" viewBox="0 0 97 50" version="1.1">
<g id="surface1">
<path style=" stroke:none;fill-rule:nonzero;fill:rgb(98.823529%,70.980392%,7.843137%);fill-opacity:1;" d="M 17.808594 24.609375 C 15.976562 27.785156 17.0625 31.839844 20.234375 33.675781 C 23.402344 35.511719 27.460938 34.429688 29.296875 31.257812 C 31.132812 28.085938 30.054688 24.027344 26.886719 22.1875 L 26.730469 22.101562 C 25.226562 21.257812 23.664062 20.519531 22.0625 19.886719 C 20.546875 19.300781 19.078125 18.605469 17.664062 17.808594 C 13.941406 15.140625 12.558594 10.253906 14.332031 6.03125 C 16.101562 1.808594 20.558594 -0.628906 25.066406 0.15625 C 29.578125 0.941406 32.945312 4.746094 33.183594 9.316406 L 29.308594 9.316406 C 29 6.199219 26.316406 3.863281 23.183594 3.988281 C 20.054688 4.117188 17.566406 6.664062 17.511719 9.796875 C 17.515625 11.839844 18.570312 13.734375 20.300781 14.8125 C 21.984375 15.742188 23.746094 16.527344 25.5625 17.164062 L 27.441406 17.882812 C 32.9375 19.925781 35.773438 26.007812 33.804688 31.535156 C 31.835938 37.0625 25.792969 39.980469 20.242188 38.089844 C 14.691406 36.195312 11.691406 30.191406 13.507812 24.613281 "/>
<path style=" stroke:none;fill-rule:nonzero;fill:rgb(63.921569%,14.901961%,21.960784%);fill-opacity:1;" d="M 17.507812 17.664062 C 16.464844 16.871094 15.589844 15.882812 14.929688 14.75 L 14.957031 14.738281 C 8.382812 19.136719 6.125 27.75 9.691406 34.808594 C 13.257812 41.871094 21.53125 45.160156 28.96875 42.472656 C 36.40625 39.785156 40.671875 31.96875 38.90625 24.257812 L 38.695312 24.296875 L 29.058594 24.296875 L 29.058594 28.089844 L 35.425781 28.089844 L 35.425781 28.132812 C 35.265625 33.804688 31.097656 38.566406 25.496094 39.476562 C 19.894531 40.382812 14.4375 37.179688 12.496094 31.84375 C 10.554688 26.511719 12.671875 20.546875 17.546875 17.636719 "/>
<path style=" stroke:none;fill-rule:nonzero;fill:rgb(63.921569%,14.901961%,21.960784%);fill-opacity:1;" d="M 18.484375 12.980469 C 18.960938 13.71875 19.597656 14.34375 20.339844 14.808594 C 20.339844 14.808594 21.390625 15.402344 22.832031 16.054688 L 22.78125 16.003906 C 23.054688 15.980469 23.328125 15.980469 23.605469 15.980469 C 26.679688 15.976562 29.632812 17.175781 31.839844 19.320312 L 34.433594 16.421875 C 30.179688 12.394531 24.042969 11.070312 18.511719 12.980469 "/>
<path style=" stroke:none;fill-rule:nonzero;fill:rgb(98.823529%,70.980392%,7.843137%);fill-opacity:1;" d="M 39.542969 42.546875 C 38.109375 42.933594 36.578125 43.058594 35.1875 43.53125 C 37.546875 41.511719 37.410156 38.367188 38.984375 35.992188 C 39.476562 35.316406 39.898438 34.613281 40.488281 33.96875 C 39.527344 35.894531 39.945312 38.394531 38.84375 40.25 C 38.394531 41.023438 37.820312 41.710938 37.144531 42.292969 C 37.363281 42.292969 37.554688 42.09375 37.746094 41.96875 C 39.535156 40.183594 41.867188 39.6875 43.800781 38.234375 C 44.597656 37.632812 45.226562 36.84375 45.628906 35.933594 C 45.261719 38.882812 42.316406 41.667969 39.542969 42.550781 Z M 39.542969 42.546875 "/>
<path style=" stroke:none;fill-rule:nonzero;fill:rgb(98.823529%,70.980392%,7.843137%);fill-opacity:1;" d="M 45.980469 30.566406 C 45.109375 31.808594 44.050781 32.96875 43.242188 34.234375 C 43.332031 33.234375 43.449219 32 43.058594 31.050781 C 42.382812 29.007812 41.789062 26.929688 41.601562 24.6875 L 41.625 23.832031 C 42.132812 26.121094 44.382812 27.699219 44.242188 30.265625 C 44.292969 30.890625 44.101562 31.421875 43.996094 31.964844 L 44.035156 32.003906 L 44.140625 31.894531 C 44.472656 30.632812 44.628906 29.308594 45.160156 28.132812 C 45.894531 26.441406 46.820312 24.734375 46.441406 22.691406 C 47.5625 25.097656 47.222656 28.316406 46 30.558594 Z M 45.980469 30.566406 "/>
<path style=" stroke:none;fill-rule:nonzero;fill:rgb(98.823529%,70.980392%,7.843137%);fill-opacity:1;" d="M 44.601562 17.589844 C 46.074219 19.585938 46.398438 22.777344 45.328125 25.066406 C 44.921875 26.058594 44.640625 27.09375 44.484375 28.152344 C 44.410156 27.964844 44.394531 27.714844 44.328125 27.507812 C 43.742188 25.265625 41.625 23.664062 40.746094 21.546875 C 40.457031 20.851562 40.242188 20.128906 40.101562 19.386719 C 41.035156 21.109375 43.332031 22.007812 43.960938 23.90625 C 44.207031 24.398438 44.207031 24.988281 44.359375 25.503906 C 44.375 25.507812 44.394531 25.5 44.40625 25.492188 C 44.417969 25.480469 44.425781 25.464844 44.425781 25.449219 C 44.179688 23.472656 44.207031 21.472656 44.5 19.503906 C 44.484375 18.457031 44.386719 17.4375 43.800781 16.628906 C 44.175781 16.847656 44.34375 17.265625 44.605469 17.589844 Z M 44.601562 17.589844 "/>
<path style=" stroke:none;fill-rule:nonzero;fill:rgb(98.823529%,70.980392%,7.843137%);fill-opacity:1;" d="M 43.5625 17.210938 C 43.949219 18.964844 43.386719 20.667969 43.742188 22.4375 L 43.726562 22.453125 C 42.773438 20.582031 40.75 19.695312 39.359375 18.199219 C 38.554688 17.308594 38.203125 16.230469 38 15.074219 C 38.800781 17 40.949219 17.421875 42.179688 19.042969 C 42.59375 19.414062 42.726562 19.933594 42.992188 20.355469 L 43.035156 20.316406 C 42.324219 18.796875 42.085938 17.089844 41.59375 15.472656 C 41.328125 14.730469 40.839844 14.085938 40.191406 13.640625 C 41.8125 13.972656 43.21875 15.667969 43.554688 17.214844 Z M 43.5625 17.210938 "/>
<path style=" stroke:none;fill-rule:nonzero;fill:rgb(98.823529%,70.980392%,7.843137%);fill-opacity:1;" d="M 39.226562 13.183594 C 40.457031 14.28125 41 15.695312 41.359375 17.164062 L 41.558594 17.628906 C 39.765625 16.328125 38.230469 14.699219 37.042969 12.828125 L 35.660156 11.425781 C 36.878906 11.945312 38.1875 12.25 39.226562 13.183594 Z M 39.226562 13.183594 "/>
<path style=" stroke:none;fill-rule:nonzero;fill:rgb(98.823529%,70.980392%,7.843137%);fill-opacity:1;" d="M 11.230469 11.660156 C 10.003906 12.734375 9.15625 14.09375 8.246094 15.347656 C 7.433594 16.359375 6.390625 17.023438 5.464844 17.890625 C 5.957031 16.855469 5.984375 15.621094 6.691406 14.675781 C 7.699219 12.917969 9.566406 12.300781 11.234375 11.648438 Z M 11.230469 11.660156 "/>
<path style=" stroke:none;fill-rule:nonzero;fill:rgb(98.823529%,70.980392%,7.843137%);fill-opacity:1;" d="M 4.523438 15.402344 C 5.078125 14.683594 5.855469 14.164062 6.734375 13.929688 C 5.082031 15.0625 5.1875 17.097656 4.664062 18.789062 C 4.5 19.410156 4.207031 19.988281 4.066406 20.628906 L 4.105469 20.660156 C 4.414062 19.90625 4.875 19.222656 5.464844 18.664062 C 6.640625 17.582031 8.371094 16.90625 8.949219 15.300781 C 8.921875 17.53125 7.066406 19.28125 5.289062 20.527344 C 4.550781 21.171875 3.851562 21.90625 3.449219 22.742188 C 3.410156 22.179688 3.53125 21.617188 3.492188 21.019531 C 3.292969 19.0625 3.15625 16.84375 4.523438 15.402344 Z M 4.523438 15.402344 "/>
<path style=" stroke:none;fill-rule:nonzero;fill:rgb(98.823529%,70.980392%,7.843137%);fill-opacity:1;" d="M 1.1875 22.046875 C 1.140625 20.082031 1.953125 18.472656 3.105469 17.003906 C 3.140625 16.984375 3.164062 16.953125 3.210938 16.960938 C 1.945312 18.890625 2.992188 21.316406 2.933594 23.5 L 2.769531 25.742188 C 2.792969 25.757812 2.792969 25.828125 2.851562 25.800781 C 2.910156 25.542969 2.957031 25.285156 2.992188 25.027344 C 3.292969 23.214844 4.859375 21.933594 6.242188 20.683594 C 6.535156 20.378906 6.773438 20.027344 6.945312 19.640625 C 6.820312 20.554688 6.5625 21.445312 6.175781 22.285156 C 5.109375 24.367188 3.136719 26.074219 2.777344 28.460938 C 2.601562 26.175781 1.058594 24.464844 1.203125 22.042969 Z M 1.1875 22.046875 "/>
<path style=" stroke:none;fill-rule:nonzero;fill:rgb(98.823529%,70.980392%,7.843137%);fill-opacity:1;" d="M 0.230469 24.847656 C 0.335938 24.226562 0.511719 23.617188 0.75 23.03125 C 0.238281 25.632812 1.992188 27.507812 2.558594 29.765625 C 2.800781 30.609375 2.855469 31.515625 3.199219 32.308594 C 3.230469 32.324219 3.257812 32.289062 3.277344 32.265625 C 2.425781 29.871094 3.65625 27.640625 4.898438 25.761719 C 5.1875 25.242188 5.398438 24.679688 5.527344 24.09375 C 5.660156 25.179688 5.386719 26.425781 5.226562 27.554688 C 4.929688 28.988281 4.476562 30.347656 4.085938 31.734375 C 3.828125 32.601562 3.898438 33.585938 4.03125 34.496094 L 3.90625 34.390625 C 2.996094 32.714844 1.203125 31.40625 0.660156 29.574219 C 0.222656 28.125 -0.0664062 26.433594 0.230469 24.832031 Z M 0.230469 24.847656 "/>
<path style=" stroke:none;fill-rule:nonzero;fill:rgb(98.823529%,70.980392%,7.843137%);fill-opacity:1;" d="M 0.148438 29.933594 C 0.34375 32.699219 3.3125 34.148438 4.691406 36.4375 C 5.015625 36.902344 5.296875 37.417969 5.726562 37.808594 C 5.65625 37.515625 5.386719 37.269531 5.285156 36.96875 C 4.800781 35.957031 4.613281 34.824219 4.742188 33.710938 C 4.875 32.300781 5.480469 30.992188 5.234375 29.511719 C 6.445312 32.117188 6.078125 35.367188 6.753906 38.195312 C 6.929688 38.8125 7.289062 39.363281 7.519531 39.953125 C 5.039062 38.261719 1.65625 36.652344 0.554688 33.558594 C 0.0976562 32.484375 0.0390625 31.160156 0.144531 29.933594 Z M 0.148438 29.933594 "/>
<path style=" stroke:none;fill-rule:nonzero;fill:rgb(98.823529%,70.980392%,7.843137%);fill-opacity:1;" d="M 1.628906 36.269531 C 3.015625 39.402344 6.480469 39.660156 8.804688 41.566406 C 9.214844 41.941406 9.675781 42.253906 10.175781 42.492188 L 10.199219 42.46875 C 9.667969 41.976562 9.050781 41.4375 8.675781 40.808594 C 7.316406 38.917969 7.792969 36.265625 6.777344 34.230469 C 7.707031 35.292969 8.492188 36.476562 9.101562 37.75 C 9.929688 39.800781 10.25 42.117188 12.175781 43.667969 C 10.09375 42.984375 7.652344 43.175781 5.816406 41.890625 C 3.808594 40.664062 2.019531 38.570312 1.636719 36.265625 Z M 1.628906 36.269531 "/>
<path style=" stroke:none;fill-rule:nonzero;fill:rgb(98.823529%,70.980392%,7.843137%);fill-opacity:1;" d="M 5.1875 42.113281 C 7.398438 44.636719 11.03125 43.796875 13.988281 44.457031 C 14.402344 44.511719 14.789062 44.679688 15.230469 44.613281 C 14.878906 44.390625 14.390625 44.414062 14.003906 44.210938 C 11.6875 43.394531 11.347656 40.886719 10.089844 39.195312 C 11.695312 40.265625 13.039062 41.703125 14.53125 43.097656 C 15.597656 44.03125 16.878906 44.464844 18.226562 44.738281 C 17.902344 44.855469 17.492188 44.824219 17.128906 44.914062 C 14.703125 45.511719 12.003906 46.488281 9.429688 45.613281 C 7.757812 45.085938 6.027344 43.761719 5.1875 42.113281 Z M 5.1875 42.113281 "/>
<path style=" stroke:none;fill-rule:nonzero;fill:rgb(63.921569%,14.901961%,21.960784%);fill-opacity:1;" d="M 35.304688 48 C 32.804688 48.933594 30.195312 47.953125 28.242188 46.472656 C 27.449219 45.980469 26.765625 45.242188 25.730469 45.3125 C 25.378906 45.292969 25.027344 45.328125 24.6875 45.414062 C 26.636719 46.332031 28.417969 47.566406 29.960938 49.074219 C 29.664062 49.386719 29.347656 49.675781 29.003906 49.9375 C 27.449219 48.265625 25.730469 46.652344 23.804688 45.714844 C 23.421875 45.804688 23.058594 45.957031 22.730469 46.171875 C 21.082031 47.179688 19.632812 48.476562 18.445312 50 L 17.445312 49.171875 C 18.972656 47.605469 20.765625 46.324219 22.746094 45.394531 C 20.84375 44.792969 19.605469 46.378906 18.164062 47.195312 C 16.480469 48.371094 14.066406 48.914062 12.019531 48.113281 C 10.871094 47.71875 9.851562 47.019531 9.070312 46.09375 C 10.667969 47.195312 13.050781 47.324219 14.867188 46.585938 C 17.308594 45.527344 19.84375 44.183594 22.785156 44.828125 C 23.242188 44.828125 23.691406 45.292969 24.125 44.902344 C 26.339844 44.375 28.671875 44.667969 30.6875 45.730469 L 32.625 46.507812 C 34.429688 47.171875 36.761719 47 38.304688 45.890625 C 37.515625 46.851562 36.476562 47.578125 35.304688 47.992188 Z M 35.304688 48 "/>
<path style=" stroke:none;fill-rule:nonzero;fill:rgb(98.823529%,70.980392%,7.843137%);fill-opacity:1;" d="M 37.984375 45.414062 C 35.175781 46.472656 32.351562 45.167969 29.664062 44.734375 L 29.140625 44.667969 L 29.140625 44.65625 C 30.429688 44.363281 31.675781 43.980469 32.703125 43.054688 C 34.207031 41.601562 35.550781 40.105469 37.226562 38.96875 C 35.980469 40.5625 35.851562 42.828125 33.800781 43.855469 C 33.292969 44.183594 32.652344 44.246094 32.128906 44.496094 C 32.867188 44.511719 33.558594 44.25 34.300781 44.171875 C 37.050781 43.738281 40.199219 44.171875 42.125 41.835938 C 41.410156 43.46875 39.617188 44.835938 37.984375 45.414062 Z M 37.984375 45.414062 "/>
<path style=" stroke:none;fill-rule:nonzero;fill:rgb(98.823529%,70.980392%,7.843137%);fill-opacity:1;" d="M 43.085938 37.511719 C 41.976562 38.246094 40.851562 38.910156 39.789062 39.734375 L 39.789062 39.632812 C 41.417969 36.929688 40.617188 33.191406 41.628906 30.207031 L 42 29.207031 C 41.792969 31.066406 42.597656 32.648438 42.542969 34.507812 C 42.484375 35.589844 42.132812 36.636719 41.527344 37.535156 L 41.628906 37.535156 C 42.429688 36.484375 43.054688 35.367188 43.988281 34.367188 C 45.441406 32.96875 46.914062 31.535156 47.101562 29.589844 C 47.59375 32.835938 45.773438 35.675781 43.085938 37.511719 Z M 43.085938 37.511719 "/>
<path style=" stroke:none;fill-rule:evenodd;fill:rgb(63.921569%,14.901961%,21.960784%);fill-opacity:1;" d="M 23.488281 29.960938 L 23.800781 29.960938 L 23.800781 37.75 L 23.488281 37.75 Z M 23.488281 29.960938 "/>
<path style=" stroke:none;fill-rule:evenodd;fill:rgb(63.921569%,14.901961%,21.960784%);fill-opacity:1;" d="M 21.804688 29.191406 L 22.023438 29.414062 L 16.511719 34.917969 L 16.292969 34.699219 Z M 21.804688 29.191406 "/>
<path style=" stroke:none;fill-rule:evenodd;fill:rgb(63.921569%,14.901961%,21.960784%);fill-opacity:1;" d="M 21.273438 27.570312 L 21.273438 27.878906 L 13.488281 27.871094 L 13.488281 27.5625 Z M 21.273438 27.570312 "/>
<path style=" stroke:none;fill-rule:evenodd;fill:rgb(63.921569%,14.901961%,21.960784%);fill-opacity:1;" d="M 22.015625 26.066406 L 21.796875 26.285156 L 16.292969 20.777344 L 16.511719 20.558594 Z M 22.015625 26.066406 "/>
<path style=" stroke:none;fill-rule:evenodd;fill:rgb(63.921569%,14.901961%,21.960784%);fill-opacity:1;" d="M 23.796875 25.429688 L 23.484375 25.429688 L 23.492188 17.636719 L 23.800781 17.636719 Z M 23.796875 25.429688 "/>
<path style=" stroke:none;fill-rule:evenodd;fill:rgb(63.921569%,14.901961%,21.960784%);fill-opacity:1;" d="M 25.351562 26.171875 L 25.136719 25.953125 L 30.648438 20.449219 L 30.867188 20.667969 Z M 25.351562 26.171875 "/>
<path style=" stroke:none;fill-rule:evenodd;fill:rgb(63.921569%,14.901961%,21.960784%);fill-opacity:1;" d="M 25.957031 27.90625 L 25.953125 27.59375 L 33.742188 27.585938 L 33.742188 27.894531 Z M 25.957031 27.90625 "/>
<path style=" stroke:none;fill-rule:evenodd;fill:rgb(63.921569%,14.901961%,21.960784%);fill-opacity:1;" d="M 25.058594 29.492188 L 25.277344 29.273438 L 30.785156 34.777344 L 30.570312 34.996094 Z M 25.058594 29.492188 "/>
<path style=" stroke:none;fill-rule:evenodd;fill:rgb(63.921569%,14.901961%,21.960784%);fill-opacity:1;" d="M 26.550781 19.929688 C 30.84375 21.53125 33.023438 26.316406 31.421875 30.609375 C 29.816406 34.90625 25.039062 37.089844 20.746094 35.484375 C 16.449219 33.882812 14.269531 29.101562 15.871094 24.804688 C 17.476562 20.507812 22.253906 18.328125 26.550781 19.929688 Z M 26.421875 20.261719 C 30.53125 21.796875 32.617188 26.367188 31.085938 30.476562 C 29.558594 34.585938 24.988281 36.675781 20.878906 35.144531 C 16.773438 33.617188 14.683594 29.042969 16.210938 24.933594 C 17.738281 20.820312 22.3125 18.730469 26.421875 20.261719 Z M 26.421875 20.261719 "/>
<path style=" stroke:none;fill-rule:evenodd;fill:rgb(63.921569%,14.901961%,21.960784%);fill-opacity:1;" d="M 25.882812 21.710938 C 29.183594 22.949219 30.859375 26.628906 29.625 29.933594 C 28.390625 33.238281 24.710938 34.917969 21.40625 33.683594 C 18.101562 32.449219 16.421875 28.769531 17.652344 25.464844 C 18.246094 23.871094 19.445312 22.582031 20.988281 21.878906 C 22.535156 21.175781 24.292969 21.113281 25.882812 21.710938 Z M 25.753906 22.046875 C 28.875 23.214844 30.457031 26.695312 29.292969 29.816406 C 28.125 32.9375 24.648438 34.523438 21.527344 33.355469 C 18.40625 32.1875 16.824219 28.710938 17.988281 25.589844 C 19.15625 22.464844 22.632812 20.882812 25.753906 22.046875 Z M 25.753906 22.046875 "/>
<path style=" stroke:none;fill-rule:evenodd;fill:rgb(63.921569%,14.901961%,21.960784%);fill-opacity:1;" d="M 25.238281 23.4375 C 27.589844 24.316406 28.785156 26.941406 27.90625 29.296875 C 27.027344 31.652344 24.402344 32.847656 22.050781 31.96875 C 19.695312 31.085938 18.5 28.464844 19.378906 26.109375 C 20.261719 23.753906 22.882812 22.558594 25.238281 23.4375 Z M 25.121094 23.75 C 27.304688 24.566406 28.414062 27 27.597656 29.183594 C 26.78125 31.371094 24.347656 32.480469 22.164062 31.664062 C 19.980469 30.847656 18.871094 28.414062 19.6875 26.226562 C 20.078125 25.179688 20.871094 24.328125 21.890625 23.863281 C 22.910156 23.398438 24.070312 23.355469 25.121094 23.75 Z M 25.121094 23.75 "/>
<path style=" stroke:none;fill-rule:evenodd;fill:rgb(63.921569%,14.901961%,21.960784%);fill-opacity:1;" d="M 24.507812 25.378906 C 25.789062 25.863281 26.433594 27.289062 25.953125 28.570312 C 25.472656 29.851562 24.046875 30.5 22.765625 30.019531 C 21.488281 29.539062 20.835938 28.113281 21.316406 26.832031 C 21.546875 26.214844 22.011719 25.714844 22.609375 25.445312 C 23.210938 25.171875 23.894531 25.148438 24.507812 25.378906 Z M 24.382812 25.714844 C 25.480469 26.128906 26.035156 27.347656 25.625 28.445312 C 25.214844 29.539062 23.996094 30.097656 22.898438 29.6875 C 21.804688 29.277344 21.246094 28.058594 21.65625 26.960938 C 21.851562 26.433594 22.25 26.007812 22.761719 25.773438 C 23.273438 25.539062 23.855469 25.519531 24.382812 25.714844 Z M 24.382812 25.714844 "/>
<path style=" stroke:none;fill-rule:evenodd;fill:rgb(63.921569%,14.901961%,21.960784%);fill-opacity:1;" d="M 28.484375 18.699219 C 33.5 21.460938 35.402344 27.734375 32.734375 32.710938 C 30.066406 37.6875 23.824219 39.476562 18.808594 36.710938 C 13.789062 33.949219 11.894531 27.671875 14.554688 22.699219 C 17.214844 17.722656 23.464844 15.9375 28.484375 18.699219 Z M 28.304688 19.023438 C 33.140625 21.6875 34.976562 27.734375 32.402344 32.523438 C 29.828125 37.3125 23.8125 39.042969 18.980469 36.386719 C 14.144531 33.730469 12.308594 27.671875 14.882812 22.878906 C 17.457031 18.085938 23.46875 16.363281 28.304688 19.023438 Z M 28.304688 19.023438 "/>
<path style=" stroke:none;fill-rule:nonzero;fill:rgb(63.921569%,14.901961%,21.960784%);fill-opacity:1;" d="M 29.699219 32.519531 C 29.699219 32.570312 29.699219 32.703125 29.699219 32.734375 C 29.75 32.761719 29.808594 32.769531 29.863281 32.75 C 29.992188 32.6875 30.09375 32.582031 30.152344 32.453125 C 30.195312 32.394531 30.214844 32.324219 30.207031 32.253906 L 30.128906 32.007812 C 30.109375 31.921875 30.082031 31.761719 29.992188 31.738281 C 29.992188 31.714844 30.027344 31.679688 30.027344 31.648438 C 30.003906 31.554688 29.847656 31.582031 29.78125 31.648438 C 29.714844 31.71875 29.757812 31.761719 29.753906 31.800781 C 29.75 31.917969 29.726562 32.03125 29.691406 32.144531 C 29.65625 32.222656 29.5625 32.328125 29.558594 32.414062 C 29.574219 32.472656 29.628906 32.515625 29.6875 32.515625 Z M 24.402344 31.847656 L 24.429688 31.914062 C 24.429688 31.914062 24.445312 31.941406 24.457031 31.941406 C 24.527344 32.011719 24.628906 31.851562 24.507812 31.828125 C 24.507812 31.828125 24.476562 31.828125 24.464844 31.828125 C 24.441406 31.828125 24.421875 31.835938 24.402344 31.847656 Z M 24.480469 31.691406 C 24.433594 31.738281 24.414062 31.773438 24.496094 31.808594 Z M 23.199219 30.75 C 23.121094 30.820312 23.128906 30.777344 23.085938 30.800781 C 23.042969 30.824219 23.085938 30.855469 23.054688 30.90625 C 23.023438 30.957031 23.015625 30.941406 23.015625 30.964844 C 23.027344 30.992188 23.050781 31.015625 23.078125 31.023438 C 23.148438 31.027344 23.21875 31.015625 23.285156 30.992188 C 23.324219 30.957031 23.308594 30.914062 23.328125 30.878906 L 23.367188 30.832031 C 23.355469 30.796875 23.332031 30.769531 23.296875 30.753906 C 23.265625 30.738281 23.226562 30.738281 23.195312 30.75 Z M 26.289062 30.417969 L 26.289062 30.609375 C 26.390625 30.585938 26.488281 30.550781 26.582031 30.507812 C 26.609375 30.492188 26.671875 30.464844 26.695312 30.484375 C 26.722656 30.503906 26.714844 30.535156 26.695312 30.558594 C 26.664062 30.617188 26.628906 30.671875 26.585938 30.71875 C 26.5 30.8125 26.371094 30.824219 26.261719 30.921875 C 26.203125 30.980469 26.1875 31.035156 26.132812 31.097656 C 26.089844 31.132812 26.046875 31.164062 26 31.191406 C 25.972656 31.230469 26 31.25 25.933594 31.285156 L 25.96875 31.207031 C 25.9375 31.207031 25.894531 31.207031 25.867188 31.171875 C 25.855469 31.140625 25.855469 31.105469 25.867188 31.078125 C 25.875 30.976562 25.894531 30.878906 25.933594 30.789062 C 25.972656 30.769531 26.011719 30.75 26.054688 30.734375 L 26.039062 30.800781 C 26.074219 30.800781 26.109375 30.792969 26.144531 30.78125 C 26.199219 30.765625 26.25 30.652344 26.277344 30.605469 L 26.132812 30.664062 C 26.167969 30.574219 26.222656 30.488281 26.289062 30.417969 Z M 23.421875 30.730469 C 23.402344 30.832031 23.460938 30.792969 23.496094 30.835938 C 23.515625 30.859375 23.527344 30.886719 23.527344 30.917969 L 23.445312 30.9375 L 23.410156 30.996094 L 23.359375 31.054688 L 23.503906 31.09375 C 23.433594 31.125 23.386719 31.117188 23.34375 31.183594 L 23.523438 31.167969 C 23.632812 31.1875 23.742188 31.171875 23.84375 31.128906 L 23.820312 31.109375 L 23.851562 31.003906 L 23.769531 30.957031 L 23.742188 30.898438 L 23.605469 30.738281 L 23.5625 30.71875 C 23.601562 30.671875 23.675781 30.589844 23.5625 30.566406 L 23.507812 30.566406 L 23.554688 30.507812 C 23.496094 30.492188 23.433594 30.507812 23.386719 30.546875 C 23.335938 30.617188 23.332031 30.707031 23.421875 30.730469 Z M 23.359375 29.34375 L 23.359375 29.421875 L 23.335938 29.390625 L 23.335938 29.519531 C 23.355469 29.59375 23.4375 29.5625 23.457031 29.542969 C 23.472656 29.519531 23.480469 29.492188 23.480469 29.464844 C 23.476562 29.445312 23.46875 29.425781 23.453125 29.410156 C 23.433594 29.40625 23.417969 29.40625 23.398438 29.410156 L 23.398438 29.351562 L 23.367188 29.351562 Z M 14.570312 30.027344 C 14.570312 30.1875 14.609375 30.183594 14.644531 30.320312 C 14.644531 30.40625 14.660156 30.488281 14.691406 30.566406 C 14.71875 30.632812 14.738281 30.695312 14.804688 30.71875 C 14.792969 30.5625 14.757812 30.410156 14.703125 30.265625 C 14.65625 30.1875 14.617188 30.105469 14.589844 30.019531 L 14.570312 30.019531 Z M 29.3125 28.25 C 29.269531 28.269531 29.242188 28.316406 29.25 28.363281 C 29.246094 28.40625 29.273438 28.441406 29.3125 28.445312 C 29.324219 28.449219 29.335938 28.449219 29.34375 28.445312 C 29.417969 28.417969 29.429688 28.234375 29.3125 28.257812 Z M 19.238281 28.226562 C 19.214844 28.285156 19.207031 28.335938 19.265625 28.375 C 19.265625 28.320312 19.28125 28.265625 19.242188 28.226562 Z M 22.390625 28.277344 L 22.425781 28.308594 C 22.480469 28.25 22.53125 28.1875 22.578125 28.121094 C 22.609375 28.085938 22.648438 28.058594 22.6875 28.035156 C 22.703125 28.011719 22.710938 27.984375 22.710938 27.957031 C 22.710938 27.925781 22.757812 27.898438 22.753906 27.824219 C 22.746094 27.746094 22.710938 27.667969 22.640625 27.683594 L 22.621094 27.632812 C 22.582031 27.636719 22.542969 27.652344 22.507812 27.671875 C 22.480469 27.699219 22.492188 27.738281 22.453125 27.777344 C 22.410156 27.820312 22.359375 27.855469 22.304688 27.882812 C 22.273438 27.882812 22.289062 27.925781 22.238281 27.964844 C 22.1875 28 22.121094 27.984375 22.078125 28 C 22.015625 28.035156 21.960938 28.078125 21.910156 28.132812 C 21.863281 28.1875 21.832031 28.253906 21.8125 28.324219 C 21.8125 28.347656 21.785156 28.382812 21.796875 28.402344 C 21.8125 28.425781 21.84375 28.417969 21.863281 28.402344 C 21.882812 28.390625 21.996094 28.335938 22.03125 28.34375 C 22.054688 28.351562 22.078125 28.359375 22.097656 28.371094 C 22.125 28.375 22.148438 28.378906 22.175781 28.386719 C 22.203125 28.402344 22.226562 28.421875 22.246094 28.445312 C 22.300781 28.46875 22.359375 28.402344 22.375 28.355469 C 22.386719 28.332031 22.390625 28.308594 22.390625 28.28125 Z M 22.453125 27.449219 L 22.441406 27.449219 Z M 22.546875 27.527344 C 22.597656 27.597656 22.664062 27.65625 22.738281 27.703125 C 22.757812 27.691406 22.769531 27.675781 22.777344 27.65625 C 22.808594 27.589844 22.789062 27.511719 22.734375 27.464844 C 22.699219 27.453125 22.664062 27.457031 22.632812 27.476562 C 22.628906 27.457031 22.617188 27.441406 22.605469 27.425781 C 22.519531 27.34375 22.414062 27.570312 22.550781 27.527344 Z M 22.109375 27.386719 C 22.179688 27.457031 22.183594 27.46875 22.277344 27.457031 C 22.261719 27.523438 22.175781 27.628906 22.109375 27.582031 C 22.042969 27.53125 22.054688 27.511719 22.035156 27.5 C 22.011719 27.492188 21.996094 27.558594 21.976562 27.582031 C 21.933594 27.660156 21.859375 27.660156 21.851562 27.789062 L 21.890625 27.765625 C 21.929688 27.847656 22.007812 27.765625 22.058594 27.726562 C 22.042969 27.746094 22.03125 27.765625 22.023438 27.785156 C 22.019531 27.808594 22.03125 27.832031 22.054688 27.835938 C 22.066406 27.839844 22.074219 27.839844 22.082031 27.835938 C 22.113281 27.835938 22.148438 27.765625 22.179688 27.738281 C 22.199219 27.722656 22.226562 27.710938 22.25 27.703125 C 22.28125 27.679688 22.320312 27.640625 22.347656 27.621094 C 22.4375 27.546875 22.441406 27.585938 22.472656 27.476562 C 22.472656 27.453125 22.472656 27.445312 22.472656 27.421875 C 22.429688 27.328125 22.277344 27.40625 22.265625 27.398438 L 22.199219 27.382812 C 22.175781 27.382812 22.136719 27.382812 22.101562 27.382812 Z M 22.601562 27.363281 L 22.546875 27.363281 L 22.558594 27.394531 C 22.621094 27.378906 22.664062 27.375 22.667969 27.300781 C 22.613281 27.300781 22.605469 27.300781 22.601562 27.359375 Z M 19.238281 27.570312 L 19.1875 27.816406 L 19.210938 27.917969 L 19.257812 28.125 C 19.296875 28.046875 19.320312 27.964844 19.335938 27.878906 L 19.351562 27.792969 C 19.359375 27.742188 19.355469 27.6875 19.332031 27.640625 L 19.265625 27.703125 L 19.265625 27.5625 L 19.242188 27.5625 Z M 22.691406 27.289062 C 22.691406 27.226562 22.691406 27.234375 22.75 27.242188 L 22.75 27.136719 C 22.714844 27.148438 22.679688 27.160156 22.644531 27.179688 C 22.601562 27.238281 22.605469 27.289062 22.691406 27.296875 Z M 22.375 27.144531 L 22.410156 27.1875 C 22.464844 27.175781 22.523438 27.179688 22.574219 27.203125 L 22.546875 27.164062 L 22.574219 27.117188 C 22.640625 27.117188 22.644531 27.054688 22.617188 27.003906 C 22.617188 27.003906 22.582031 26.988281 22.570312 26.976562 C 22.453125 26.910156 22.445312 27.011719 22.417969 27.054688 Z M 22.648438 27.109375 C 22.671875 27.109375 22.691406 27.105469 22.710938 27.09375 C 22.746094 27.042969 22.738281 26.976562 22.695312 26.933594 C 22.683594 26.929688 22.667969 26.933594 22.660156 26.945312 C 22.648438 26.953125 22.644531 26.96875 22.644531 26.980469 L 22.644531 27.109375 Z M 19.207031 27.375 C 19.242188 27.324219 19.261719 27.261719 19.265625 27.195312 C 19.1875 27.234375 19.195312 27.296875 19.203125 27.371094 Z M 19.585938 26.683594 C 19.597656 26.773438 19.585938 26.871094 19.550781 26.957031 C 19.484375 27.0625 19.425781 27.175781 19.378906 27.289062 L 19.351562 27.261719 C 19.304688 27.351562 19.300781 27.457031 19.332031 27.554688 C 19.375 27.492188 19.410156 27.421875 19.433594 27.347656 C 19.519531 27.210938 19.585938 27.0625 19.632812 26.910156 C 19.652344 26.839844 19.652344 26.769531 19.632812 26.699219 C 19.632812 26.679688 19.609375 26.679688 19.585938 26.671875 Z M 29.296875 26.964844 C 29.347656 26.855469 29.378906 26.742188 29.390625 26.621094 C 29.441406 26.390625 29.550781 26.285156 29.515625 26 C 29.515625 25.933594 29.484375 25.808594 29.414062 25.792969 C 29.292969 25.792969 29.34375 25.9375 29.335938 25.972656 C 29.339844 25.996094 29.339844 26.023438 29.335938 26.046875 C 29.296875 26.164062 29.289062 26.289062 29.308594 26.40625 L 29.285156 26.796875 L 29.316406 26.96875 Z M 27.578125 25.125 C 27.582031 25.144531 27.59375 25.160156 27.605469 25.175781 L 27.640625 25.207031 C 27.710938 25.242188 27.746094 25.171875 27.71875 25.132812 C 27.699219 25.113281 27.671875 25.105469 27.640625 25.105469 C 27.621094 25.113281 27.601562 25.121094 27.582031 25.132812 Z M 29.175781 24.9375 C 29.1875 25.054688 29.21875 25.167969 29.265625 25.273438 L 29.359375 25.449219 L 29.472656 25.785156 C 29.507812 25.714844 29.507812 25.628906 29.472656 25.558594 C 29.425781 25.410156 29.351562 25.265625 29.296875 25.132812 C 29.265625 25.058594 29.222656 24.992188 29.167969 24.9375 Z M 28.582031 24.761719 L 28.582031 24.882812 L 28.4375 24.832031 C 28.4375 24.921875 28.472656 25.007812 28.53125 25.078125 L 28.648438 25.164062 C 28.746094 25.238281 28.835938 25.320312 28.921875 25.410156 C 28.964844 25.460938 28.996094 25.515625 29.027344 25.574219 C 29.050781 25.59375 29.074219 25.613281 29.105469 25.597656 C 29.136719 25.582031 29.128906 25.53125 29.136719 25.511719 L 29.171875 25.441406 C 29.175781 25.375 29.15625 25.308594 29.121094 25.253906 L 29.050781 25.097656 C 29.03125 25.027344 28.996094 24.960938 28.953125 24.902344 C 28.882812 24.839844 28.796875 24.808594 28.707031 24.800781 L 28.582031 24.746094 Z M 25.609375 24.90625 C 25.609375 24.953125 25.609375 25.015625 25.546875 25.03125 C 25.523438 25.03125 25.5 25.027344 25.480469 25.015625 L 25.441406 25.140625 C 25.414062 25.1875 25.398438 25.238281 25.390625 25.292969 C 25.390625 25.347656 25.460938 25.339844 25.496094 25.292969 C 25.523438 25.25 25.546875 25.207031 25.566406 25.160156 C 25.613281 25.066406 25.695312 25.027344 25.703125 24.914062 L 25.605469 24.902344 Z M 28.914062 24.503906 C 28.9375 24.570312 28.972656 24.632812 29.019531 24.6875 C 29.046875 24.742188 29.039062 24.773438 29.101562 24.753906 C 29.042969 24.667969 28.980469 24.585938 28.910156 24.507812 Z M 24.449219 25.078125 C 24.328125 25.078125 24.40625 25.199219 24.390625 25.253906 C 24.375 25.308594 24.242188 25.398438 24.183594 25.359375 C 24.152344 25.371094 24.121094 25.371094 24.089844 25.359375 C 24.054688 25.359375 24.03125 25.332031 23.996094 25.335938 L 23.828125 25.457031 C 23.796875 25.488281 23.757812 25.507812 23.714844 25.511719 C 23.683594 25.511719 23.648438 25.523438 23.621094 25.542969 C 23.59375 25.566406 23.621094 25.628906 23.636719 25.660156 L 23.6875 25.730469 C 23.582031 25.761719 23.589844 25.835938 23.601562 25.9375 C 23.609375 26.035156 23.621094 26.128906 23.640625 26.226562 C 23.667969 26.285156 23.722656 26.324219 23.785156 26.339844 C 23.820312 26.359375 23.863281 26.367188 23.90625 26.363281 L 23.90625 26.234375 L 23.9375 26.234375 L 23.96875 26.339844 L 24.011719 26.339844 L 24.144531 26.371094 L 24.167969 26.386719 C 24.183594 26.417969 24.167969 26.476562 24.167969 26.507812 C 24.183594 26.582031 24.261719 26.597656 24.328125 26.59375 C 24.332031 26.632812 24.332031 26.671875 24.328125 26.710938 C 24.328125 26.765625 24.300781 26.765625 24.367188 26.878906 C 24.367188 26.898438 24.40625 26.949219 24.4375 26.949219 C 24.46875 26.945312 24.535156 26.863281 24.609375 26.824219 C 24.625 26.878906 24.625 26.886719 24.671875 26.917969 L 24.65625 26.972656 L 24.777344 26.898438 C 24.742188 27.0625 24.671875 27.023438 24.597656 27.128906 C 24.570312 27.183594 24.597656 27.234375 24.574219 27.292969 L 24.613281 27.269531 L 24.648438 27.253906 C 24.738281 27.234375 24.667969 27.347656 24.667969 27.371094 C 24.675781 27.394531 24.695312 27.414062 24.71875 27.421875 L 24.667969 27.457031 L 24.695312 27.53125 L 24.503906 27.546875 C 24.414062 27.578125 24.328125 27.632812 24.257812 27.699219 L 24.257812 27.71875 L 24.292969 27.71875 L 24.109375 27.8125 C 24.167969 27.820312 24.230469 27.8125 24.289062 27.796875 C 24.34375 27.78125 24.332031 27.796875 24.394531 27.777344 L 24.429688 27.796875 L 24.429688 27.839844 L 24.671875 27.914062 C 24.726562 27.933594 24.769531 27.914062 24.804688 27.914062 C 24.839844 27.914062 24.832031 28 24.90625 28.019531 C 24.988281 28.023438 25.066406 28.007812 25.136719 27.976562 L 25.050781 28.070312 L 25.089844 28.140625 L 25.195312 28.109375 C 25.117188 28.195312 25.125 28.128906 24.972656 28.140625 C 25.007812 28.160156 25.109375 28.203125 25.132812 28.214844 C 25.152344 28.222656 25.21875 28.214844 25.296875 28.230469 C 25.375 28.25 25.441406 28.296875 25.460938 28.195312 C 25.472656 28.214844 25.484375 28.230469 25.503906 28.246094 C 25.53125 28.257812 25.558594 28.265625 25.589844 28.269531 C 25.632812 28.269531 25.738281 28.34375 25.734375 28.398438 L 25.703125 28.433594 C 25.691406 28.398438 25.671875 28.367188 25.652344 28.339844 C 25.589844 28.269531 25.496094 28.300781 25.40625 28.285156 L 25.25 28.246094 L 25.132812 28.246094 C 25.066406 28.246094 25.027344 28.203125 24.964844 28.207031 C 24.945312 28.207031 24.914062 28.222656 24.917969 28.242188 C 24.921875 28.265625 24.9375 28.285156 24.953125 28.296875 C 25.003906 28.316406 25.054688 28.339844 25.101562 28.367188 C 25.160156 28.40625 25.179688 28.394531 25.238281 28.410156 L 25.292969 28.4375 C 25.335938 28.4375 25.34375 28.421875 25.390625 28.4375 C 25.417969 28.4375 25.449219 28.445312 25.476562 28.453125 L 25.304688 28.515625 L 25.164062 28.519531 C 25.195312 28.582031 25.207031 28.589844 25.164062 28.648438 L 25.140625 28.609375 C 25.109375 28.640625 25.113281 28.664062 25.085938 28.703125 L 25.039062 28.757812 C 25.039062 28.78125 25 28.816406 24.980469 28.816406 C 24.957031 28.820312 24.910156 28.78125 24.886719 28.761719 C 24.851562 28.738281 24.804688 28.738281 24.765625 28.761719 C 24.804688 28.820312 24.824219 28.808594 24.882812 28.835938 C 24.953125 28.886719 25.023438 28.941406 25.085938 29 C 25.085938 29 25.0625 29 25.054688 29.027344 C 25.046875 29.078125 25.058594 29.128906 25.082031 29.171875 C 25.101562 29.191406 25.128906 29.203125 25.15625 29.199219 L 25.03125 29.320312 C 25.089844 29.335938 25.109375 29.320312 25.15625 29.363281 L 25.050781 29.363281 L 24.910156 29.257812 L 24.765625 29.195312 C 24.828125 29.203125 24.894531 29.199219 24.957031 29.179688 C 25.046875 29.125 25.003906 29.019531 24.933594 28.964844 C 24.894531 28.941406 24.847656 28.933594 24.800781 28.933594 C 24.75 28.917969 24.699219 28.90625 24.648438 28.902344 L 24.527344 28.925781 L 24.527344 28.890625 C 24.496094 28.890625 24.480469 28.875 24.453125 28.890625 C 24.417969 28.859375 24.414062 28.851562 24.371094 28.84375 L 24.371094 28.898438 L 24.324219 28.847656 L 24.324219 28.902344 C 24.296875 28.859375 24.296875 28.851562 24.25 28.835938 L 24.289062 28.96875 L 24.269531 29.003906 C 24.21875 29.066406 24.199219 29.148438 24.214844 29.226562 C 24.222656 29.320312 24.210938 29.414062 24.183594 29.503906 C 24.191406 29.574219 24.191406 29.648438 24.183594 29.71875 C 24.167969 29.789062 24.144531 29.855469 24.117188 29.917969 L 24.070312 29.976562 L 24.035156 30.046875 C 24.015625 30.078125 23.984375 30.105469 23.96875 30.136719 C 23.953125 30.167969 23.96875 30.199219 23.988281 30.222656 C 24.003906 30.285156 23.960938 30.265625 24.035156 30.359375 L 23.996094 30.40625 L 24.039062 30.40625 C 24.015625 30.484375 24.0625 30.53125 24.136719 30.515625 C 24.195312 30.488281 24.242188 30.4375 24.261719 30.375 L 24.285156 30.375 L 24.429688 30.621094 C 24.453125 30.652344 24.460938 30.703125 24.5 30.710938 C 24.542969 30.71875 24.5625 30.671875 24.582031 30.640625 C 24.597656 30.605469 24.621094 30.601562 24.640625 30.578125 C 24.660156 30.558594 24.613281 30.441406 24.621094 30.386719 C 24.628906 30.332031 24.652344 30.320312 24.660156 30.265625 C 24.664062 30.210938 24.59375 30.175781 24.554688 30.132812 C 24.523438 30.09375 24.507812 30.046875 24.507812 29.996094 C 24.496094 29.878906 24.554688 29.84375 24.566406 29.75 C 24.582031 29.660156 24.535156 29.648438 24.53125 29.605469 C 24.527344 29.558594 24.53125 29.539062 24.566406 29.535156 C 24.640625 29.519531 24.648438 29.605469 24.652344 29.65625 L 24.652344 29.761719 C 24.640625 29.804688 24.636719 29.847656 24.636719 29.894531 C 24.652344 29.929688 24.671875 29.964844 24.691406 29.996094 C 24.714844 30.027344 24.71875 30.058594 24.742188 30.078125 C 24.757812 30.09375 24.777344 30.101562 24.800781 30.09375 C 24.820312 30.105469 24.839844 30.109375 24.863281 30.109375 C 24.917969 30.09375 24.96875 29.996094 25.019531 29.957031 C 25.070312 29.914062 25.09375 29.941406 25.125 29.9375 C 25.097656 29.976562 25.070312 30.015625 25.039062 30.050781 C 25 30.074219 24.925781 30.09375 24.921875 30.15625 C 24.917969 30.214844 25.015625 30.234375 25.011719 30.308594 C 25.011719 30.386719 24.925781 30.292969 24.898438 30.363281 C 24.871094 30.433594 24.898438 30.464844 24.929688 30.523438 C 24.925781 30.558594 24.917969 30.589844 24.90625 30.621094 C 24.863281 30.699219 24.824219 30.648438 24.761719 30.6875 C 24.699219 30.726562 24.660156 30.792969 24.601562 30.8125 C 24.546875 30.832031 24.527344 30.796875 24.496094 30.8125 C 24.460938 30.824219 24.414062 30.882812 24.34375 30.8125 C 24.273438 30.738281 24.34375 30.703125 24.34375 30.640625 L 24.300781 30.535156 C 24.242188 30.574219 24.183594 30.621094 24.195312 30.707031 C 24.210938 30.792969 24.300781 30.835938 24.261719 30.894531 C 24.21875 30.949219 24.167969 30.925781 24.117188 30.964844 C 24.0625 31.003906 23.992188 31.113281 23.972656 31.125 C 23.941406 31.140625 23.910156 31.15625 23.882812 31.175781 L 23.777344 31.28125 L 23.757812 31.304688 L 23.625 31.261719 L 23.625 31.335938 C 23.59375 31.34375 23.5625 31.34375 23.527344 31.335938 C 23.496094 31.335938 23.425781 31.335938 23.414062 31.367188 C 23.40625 31.402344 23.488281 31.429688 23.507812 31.433594 C 23.5625 31.453125 23.605469 31.492188 23.625 31.546875 C 23.644531 31.601562 23.640625 31.660156 23.613281 31.707031 C 23.574219 31.742188 23.507812 31.707031 23.460938 31.707031 C 23.363281 31.707031 23.214844 31.652344 23.109375 31.652344 C 23.003906 31.648438 23.023438 31.746094 22.996094 31.8125 C 22.972656 31.878906 22.949219 31.882812 22.945312 31.917969 C 22.9375 31.925781 22.9375 31.9375 22.945312 31.949219 C 22.945312 31.949219 22.976562 32.078125 22.976562 32.066406 C 22.992188 32.109375 23.066406 32.101562 23.109375 32.109375 C 23.15625 32.117188 23.179688 32.15625 23.226562 32.183594 C 23.257812 32.199219 23.296875 32.199219 23.328125 32.183594 C 23.425781 32.183594 23.515625 32.21875 23.660156 32.140625 C 23.6875 32.128906 23.714844 32.109375 23.726562 32.082031 C 23.757812 32.046875 23.742188 32.015625 23.78125 31.976562 C 23.820312 31.9375 23.925781 31.910156 23.976562 31.871094 C 24.023438 31.835938 23.976562 31.777344 24.058594 31.746094 C 24.144531 31.71875 24.167969 31.769531 24.242188 31.746094 C 24.316406 31.726562 24.371094 31.660156 24.433594 31.644531 C 24.5 31.628906 24.539062 31.710938 24.628906 31.734375 L 24.980469 31.808594 C 24.996094 31.8125 25.011719 31.816406 25.023438 31.828125 C 25.121094 31.90625 24.984375 31.9375 24.933594 31.957031 C 24.902344 31.96875 24.867188 31.972656 24.835938 31.972656 C 24.835938 31.972656 24.835938 31.996094 24.859375 32.003906 C 24.921875 32.03125 24.992188 32.03125 25.054688 32.003906 C 25.066406 31.980469 25.066406 31.953125 25.054688 31.925781 C 25.09375 31.917969 25.125 31.890625 25.136719 31.855469 C 25.136719 31.820312 25.117188 31.792969 25.136719 31.765625 C 25.164062 31.746094 25.195312 31.734375 25.230469 31.734375 C 25.179688 31.675781 25.140625 31.699219 25.074219 31.695312 C 25.007812 31.691406 25.03125 31.667969 24.996094 31.660156 C 24.960938 31.652344 24.933594 31.6875 24.890625 31.660156 C 24.859375 31.644531 24.824219 31.628906 24.789062 31.617188 C 24.753906 31.617188 24.667969 31.585938 24.671875 31.53125 C 24.675781 31.476562 24.6875 31.496094 24.710938 31.496094 C 24.722656 31.492188 24.730469 31.492188 24.742188 31.496094 L 24.757812 31.535156 C 24.871094 31.496094 24.832031 31.550781 24.933594 31.5625 C 25.027344 31.5625 25.121094 31.570312 25.214844 31.59375 C 25.269531 31.605469 25.25 31.640625 25.300781 31.695312 C 25.347656 31.75 25.445312 31.726562 25.519531 31.71875 C 25.519531 31.71875 25.5 31.71875 25.5 31.742188 C 25.492188 31.753906 25.492188 31.769531 25.496094 31.78125 C 25.503906 31.792969 25.515625 31.804688 25.527344 31.804688 C 25.609375 31.851562 25.726562 31.753906 25.625 31.707031 L 25.789062 31.628906 C 25.710938 31.59375 25.671875 31.628906 25.566406 31.5625 C 25.605469 31.566406 25.644531 31.550781 25.671875 31.519531 L 25.671875 31.480469 L 25.847656 31.386719 C 25.789062 31.480469 25.847656 31.453125 25.871094 31.546875 C 25.925781 31.546875 25.992188 31.546875 26.046875 31.546875 C 26.109375 31.523438 26.171875 31.496094 26.230469 31.464844 C 26.261719 31.441406 26.269531 31.40625 26.296875 31.382812 L 26.421875 31.328125 C 26.46875 31.289062 26.511719 31.246094 26.546875 31.199219 C 26.566406 31.175781 26.585938 31.152344 26.617188 31.160156 C 26.648438 31.167969 26.675781 31.28125 26.679688 31.328125 C 26.695312 31.359375 26.707031 31.394531 26.714844 31.429688 C 26.714844 31.570312 26.558594 31.59375 26.46875 31.675781 C 26.375 31.757812 26.363281 31.804688 26.300781 31.832031 C 26.171875 31.890625 26.039062 31.933594 25.902344 31.960938 L 25.679688 32.003906 C 25.625 32.027344 25.582031 32.070312 25.554688 32.121094 C 25.535156 32.164062 25.554688 32.21875 25.511719 32.246094 C 25.410156 32.277344 25.300781 32.292969 25.195312 32.292969 C 25.105469 32.292969 25.136719 32.257812 25.007812 32.269531 C 24.886719 32.289062 24.765625 32.292969 24.644531 32.28125 C 24.671875 32.25 24.691406 32.214844 24.707031 32.175781 C 24.707031 32.152344 24.707031 32.144531 24.707031 32.125 C 24.707031 32.109375 24.703125 32.09375 24.691406 32.082031 C 24.667969 32.050781 24.582031 32.058594 24.546875 32.0625 C 24.492188 32.085938 24.433594 32.101562 24.371094 32.109375 L 23.976562 32.15625 C 23.839844 32.183594 23.699219 32.21875 23.5625 32.257812 C 23.484375 32.261719 23.410156 32.257812 23.335938 32.238281 C 23.289062 32.21875 23.242188 32.179688 23.191406 32.207031 C 23.136719 32.234375 23.121094 32.265625 23.0625 32.292969 C 22.976562 32.316406 22.894531 32.34375 22.816406 32.382812 C 22.746094 32.429688 22.78125 32.472656 22.699219 32.511719 C 22.617188 32.523438 22.535156 32.53125 22.453125 32.53125 C 22.355469 32.542969 22.261719 32.570312 22.175781 32.621094 L 22.0625 32.664062 C 22.019531 32.679688 21.9375 32.699219 21.917969 32.730469 C 21.898438 32.761719 21.917969 32.808594 21.917969 32.835938 C 21.921875 32.867188 21.921875 32.898438 21.917969 32.933594 C 21.863281 33.015625 21.71875 33.082031 21.742188 33.199219 C 21.761719 33.273438 21.804688 33.277344 21.886719 33.347656 C 21.984375 33.472656 22.097656 33.589844 22.214844 33.695312 C 22.382812 33.820312 22.574219 33.914062 22.773438 33.96875 L 23.097656 33.984375 C 23.261719 34.015625 23.425781 34.03125 23.589844 34.039062 L 23.992188 33.96875 C 24.089844 33.953125 24.191406 33.953125 24.292969 33.96875 C 24.382812 33.992188 24.394531 34.054688 24.558594 34.042969 L 24.78125 34.011719 C 24.828125 33.988281 24.882812 33.988281 24.933594 34.011719 C 25.070312 34.085938 24.835938 34.226562 24.933594 34.3125 C 25.039062 34.355469 25.152344 34.386719 25.265625 34.398438 C 25.363281 34.429688 25.449219 34.476562 25.527344 34.539062 C 25.550781 34.558594 25.554688 34.578125 25.578125 34.609375 C 25.601562 34.640625 25.660156 34.65625 25.664062 34.6875 C 25.667969 34.71875 25.597656 34.78125 25.578125 34.804688 C 25.519531 34.863281 25.40625 35.011719 25.476562 35.105469 C 25.511719 35.136719 25.554688 35.164062 25.601562 35.179688 L 25.914062 35.273438 C 26.046875 35.324219 26.058594 35.429688 26.140625 35.488281 C 26.214844 35.515625 26.292969 35.527344 26.371094 35.519531 L 26.691406 35.601562 C 26.804688 35.632812 26.757812 35.707031 26.84375 35.71875 C 27.070312 35.691406 27.285156 35.605469 27.464844 35.472656 L 27.773438 35.316406 C 27.890625 35.25 28.003906 35.179688 28.113281 35.101562 C 28.328125 34.945312 28.496094 34.738281 28.605469 34.496094 C 28.660156 34.410156 28.710938 34.316406 28.75 34.222656 C 28.765625 34.15625 28.695312 34.121094 28.722656 34.0625 C 28.746094 34.007812 28.894531 33.875 28.929688 33.785156 C 28.960938 33.738281 28.949219 33.671875 28.902344 33.636719 C 28.859375 33.621094 28.828125 33.636719 28.738281 33.621094 C 28.816406 33.441406 28.914062 33.269531 29.027344 33.109375 C 29.09375 33.027344 29.140625 32.929688 29.160156 32.828125 C 29.160156 32.730469 29.074219 32.722656 29.039062 32.6875 C 29.003906 32.648438 29.011719 32.636719 28.988281 32.625 C 28.960938 32.617188 28.871094 32.648438 28.828125 32.640625 C 28.800781 32.640625 28.773438 32.632812 28.75 32.617188 C 28.714844 32.605469 28.679688 32.605469 28.644531 32.617188 C 28.632812 32.421875 28.667969 32.230469 28.75 32.058594 C 28.878906 31.753906 28.941406 31.429688 28.925781 31.101562 L 28.878906 30.855469 C 28.878906 30.824219 28.839844 30.785156 28.796875 30.796875 C 28.753906 30.8125 28.679688 31.003906 28.652344 31.058594 L 28.511719 31.320312 C 28.480469 31.382812 28.441406 31.445312 28.398438 31.503906 C 28.351562 31.539062 28.300781 31.570312 28.246094 31.59375 C 28.230469 31.539062 28.199219 31.554688 28.160156 31.566406 L 27.964844 31.671875 C 27.914062 31.710938 27.855469 31.742188 27.792969 31.761719 C 27.75 31.761719 27.722656 31.738281 27.660156 31.761719 C 27.613281 31.777344 27.5625 31.785156 27.511719 31.785156 C 27.46875 31.785156 27.421875 31.742188 27.378906 31.734375 C 27.335938 31.730469 27.292969 31.738281 27.25 31.753906 C 27.121094 31.75 26.992188 31.730469 26.867188 31.695312 C 26.886719 31.695312 26.910156 31.679688 26.90625 31.65625 C 26.898438 31.632812 26.835938 31.515625 26.941406 31.480469 L 27.164062 31.480469 L 27.269531 31.460938 C 27.324219 31.460938 27.339844 31.5 27.414062 31.492188 L 27.675781 31.425781 C 27.78125 31.425781 27.828125 31.519531 27.9375 31.445312 C 28.035156 31.339844 28.105469 31.210938 28.144531 31.070312 L 28.238281 30.824219 L 28.273438 30.660156 C 28.320312 30.558594 28.34375 30.449219 28.335938 30.339844 L 28.3125 30.132812 C 28.3125 30.046875 28.285156 29.980469 28.199219 30.066406 C 28.113281 30.148438 28.105469 30.214844 28 30.203125 C 27.96875 30.332031 28 30.507812 27.855469 30.582031 C 27.804688 30.617188 27.753906 30.601562 27.699219 30.617188 C 27.644531 30.636719 27.628906 30.660156 27.605469 30.648438 C 27.589844 30.652344 27.578125 30.648438 27.566406 30.640625 C 27.554688 30.632812 27.546875 30.617188 27.546875 30.605469 C 27.546875 30.558594 27.625 30.53125 27.65625 30.519531 C 27.746094 30.496094 27.828125 30.441406 27.886719 30.367188 C 27.933594 30.300781 27.9375 30.246094 27.972656 30.1875 C 28.011719 30.132812 28.046875 30.148438 28.078125 30.101562 C 28.113281 30.054688 28.160156 29.957031 28.1875 29.910156 L 28.320312 29.519531 C 28.382812 29.40625 28.488281 29.386719 28.519531 29.242188 L 28.535156 29.292969 C 28.648438 29.238281 28.648438 29.132812 28.625 29.027344 C 28.707031 29.03125 28.789062 29.03125 28.871094 29.027344 L 29.117188 28.875 C 29.179688 28.835938 29.277344 28.761719 29.292969 28.695312 C 29.308594 28.628906 29.238281 28.507812 29.214844 28.476562 C 29.203125 28.457031 29.1875 28.445312 29.167969 28.4375 C 29.113281 28.421875 29.039062 28.4375 29 28.367188 C 28.941406 28.253906 28.894531 28.132812 28.855469 28.011719 C 28.820312 27.921875 28.773438 27.835938 28.714844 27.753906 C 28.699219 27.703125 28.691406 27.648438 28.6875 27.59375 C 28.675781 27.566406 28.660156 27.535156 28.648438 27.5 C 28.636719 27.46875 28.671875 27.433594 28.703125 27.398438 C 28.746094 27.316406 28.738281 27.253906 28.789062 27.207031 C 28.835938 27.15625 28.859375 27.1875 28.878906 27.15625 C 28.945312 27.0625 28.789062 26.988281 28.839844 26.890625 C 28.867188 26.84375 28.945312 26.761719 29 26.757812 C 29.039062 26.757812 29.078125 26.757812 29.117188 26.757812 C 29.15625 26.757812 29.160156 26.652344 29.175781 26.609375 C 29.21875 26.5 29.277344 26.507812 29.296875 26.351562 C 29.308594 26.292969 29.300781 26.234375 29.277344 26.179688 C 29.230469 26.117188 29.160156 26.179688 29.144531 26.214844 C 29.113281 26.273438 29.105469 26.34375 29.121094 26.410156 C 29.121094 26.480469 29.101562 26.550781 29.070312 26.617188 C 29.023438 26.699219 28.929688 26.640625 28.90625 26.597656 C 28.882812 26.558594 28.90625 26.558594 28.90625 26.535156 C 28.894531 26.464844 28.894531 26.390625 28.90625 26.320312 C 28.921875 26.257812 28.933594 26.195312 28.941406 26.132812 C 28.90625 26.070312 28.863281 26.011719 28.8125 25.960938 C 28.765625 25.910156 28.675781 25.800781 28.597656 25.851562 C 28.515625 25.902344 28.539062 26.027344 28.527344 26.097656 C 28.527344 26.128906 28.503906 26.199219 28.472656 26.199219 C 28.445312 26.199219 28.417969 26.1875 28.394531 26.167969 C 28.332031 26.117188 28.296875 26.046875 28.292969 25.96875 C 28.324219 25.96875 28.410156 26 28.417969 25.96875 C 28.425781 25.9375 28.363281 25.855469 28.320312 25.863281 C 28.277344 25.867188 28.273438 25.898438 28.21875 25.863281 C 28.144531 25.773438 28.074219 25.683594 28.011719 25.589844 C 27.949219 25.503906 27.863281 25.4375 27.769531 25.394531 C 27.710938 25.378906 27.523438 25.308594 27.484375 25.34375 C 27.441406 25.378906 27.464844 25.390625 27.457031 25.410156 C 27.445312 25.398438 27.429688 25.394531 27.410156 25.394531 C 27.335938 25.378906 27.308594 25.46875 27.308594 25.523438 C 27.308594 25.578125 27.308594 25.585938 27.285156 25.597656 C 27.257812 25.609375 27.230469 25.597656 27.203125 25.574219 C 27.164062 25.539062 27.121094 25.515625 27.070312 25.5 C 27.082031 25.542969 27.101562 25.585938 27.125 25.625 C 27.1875 25.703125 27.230469 25.703125 27.21875 25.808594 C 27.128906 25.777344 27.042969 25.726562 26.972656 25.660156 L 27.058594 25.628906 L 27.058594 25.570312 C 27.023438 25.550781 26.90625 25.464844 26.902344 25.425781 C 26.898438 25.382812 26.941406 25.386719 26.9375 25.355469 C 26.933594 25.324219 26.910156 25.304688 26.9375 25.257812 C 26.964844 25.210938 27.027344 25.195312 27.023438 25.152344 C 27.019531 25.113281 26.996094 25.113281 26.972656 25.105469 C 26.953125 25.09375 26.847656 25.019531 26.796875 25.066406 C 26.746094 25.117188 26.796875 25.171875 26.765625 25.273438 C 26.734375 25.273438 26.675781 25.238281 26.640625 25.230469 C 26.609375 25.226562 26.550781 25.25 26.492188 25.230469 C 26.4375 25.214844 26.390625 25.144531 26.316406 25.121094 C 26.207031 25.082031 26.085938 25.082031 25.972656 25.121094 C 25.90625 25.121094 25.84375 25.132812 25.78125 25.160156 C 25.75 25.179688 25.722656 25.214844 25.707031 25.253906 C 25.660156 25.308594 25.566406 25.339844 25.574219 25.425781 C 25.585938 25.507812 25.660156 25.503906 25.679688 25.523438 L 25.746094 25.65625 C 25.691406 25.664062 25.632812 25.664062 25.574219 25.65625 L 25.328125 25.710938 C 25.203125 25.710938 25.164062 25.640625 25.085938 25.609375 C 25.046875 25.597656 25.007812 25.589844 24.972656 25.574219 C 24.9375 25.558594 24.933594 25.511719 24.921875 25.503906 C 24.871094 25.472656 24.816406 25.460938 24.757812 25.464844 C 24.761719 25.484375 24.757812 25.507812 24.738281 25.519531 C 24.703125 25.566406 24.648438 25.597656 24.589844 25.609375 C 24.566406 25.621094 24.539062 25.621094 24.515625 25.609375 L 24.515625 25.566406 C 24.515625 25.511719 24.488281 25.511719 24.449219 25.527344 C 24.390625 25.550781 24.339844 25.585938 24.296875 25.632812 C 24.3125 25.59375 24.332031 25.554688 24.359375 25.519531 C 24.402344 25.488281 24.449219 25.460938 24.5 25.441406 L 24.660156 25.339844 C 24.707031 25.316406 24.75 25.289062 24.792969 25.257812 C 24.878906 25.140625 24.90625 24.988281 24.878906 24.847656 C 24.792969 24.878906 24.714844 24.925781 24.648438 24.984375 C 24.617188 25 24.585938 25.015625 24.554688 25.027344 C 24.527344 25.046875 24.511719 25.082031 24.507812 25.113281 Z M 25.582031 24.6875 L 25.6875 24.761719 L 25.765625 24.90625 C 25.828125 24.878906 25.835938 24.855469 25.878906 24.839844 C 25.917969 24.828125 26.03125 24.859375 26 24.777344 L 25.964844 24.746094 L 25.964844 24.78125 C 25.925781 24.746094 25.882812 24.71875 25.835938 24.695312 C 25.753906 24.683594 25.671875 24.683594 25.589844 24.695312 Z M 25.945312 24.742188 C 26.09375 24.726562 26.066406 24.683594 26.152344 24.675781 C 26.199219 24.664062 26.253906 24.664062 26.304688 24.675781 L 26.304688 24.71875 C 26.394531 24.753906 26.390625 24.703125 26.457031 24.71875 C 26.523438 24.734375 26.5625 24.828125 26.675781 24.859375 C 26.71875 24.878906 26.742188 24.886719 26.777344 24.859375 C 26.804688 24.902344 26.8125 24.902344 26.855469 24.898438 C 26.855469 24.84375 26.894531 24.832031 26.878906 24.792969 C 26.863281 24.757812 26.753906 24.71875 26.742188 24.828125 C 26.703125 24.777344 26.726562 24.765625 26.710938 24.734375 C 26.667969 24.6875 26.601562 24.675781 26.542969 24.695312 C 26.523438 24.589844 26.542969 24.621094 26.390625 24.546875 C 26.328125 24.507812 26.257812 24.484375 26.1875 24.46875 C 26.121094 24.46875 26.105469 24.507812 26.054688 24.535156 C 26.003906 24.5625 25.992188 24.5625 25.964844 24.582031 C 25.941406 24.625 25.933594 24.675781 25.945312 24.726562 Z M 28.199219 24.269531 L 28.332031 24.421875 C 28.382812 24.492188 28.4375 24.558594 28.496094 24.621094 C 28.542969 24.664062 28.609375 24.683594 28.671875 24.667969 C 28.714844 24.65625 28.839844 24.527344 28.734375 24.46875 C 28.703125 24.453125 28.652344 24.46875 28.621094 24.46875 C 28.621094 24.40625 28.617188 24.339844 28.597656 24.277344 C 28.597656 24.257812 28.597656 24.214844 28.550781 24.230469 C 28.5 24.242188 28.550781 24.410156 28.476562 24.363281 L 28.445312 24.34375 L 28.410156 24.339844 C 28.371094 24.386719 28.410156 24.402344 28.453125 24.441406 C 28.503906 24.476562 28.535156 24.527344 28.542969 24.585938 C 28.429688 24.507812 28.421875 24.445312 28.347656 24.355469 C 28.3125 24.304688 28.257812 24.277344 28.199219 24.28125 Z M 28.664062 24.167969 C 28.707031 24.273438 28.785156 24.367188 28.882812 24.429688 C 28.828125 24.328125 28.761719 24.183594 28.664062 24.160156 Z M 20.765625 24.953125 L 20.859375 24.953125 L 21.136719 25.035156 C 21.214844 25.039062 21.289062 25.070312 21.347656 25.125 C 21.207031 25.125 21.234375 25.125 21.128906 25.089844 C 21.058594 25.089844 20.988281 25.089844 20.917969 25.089844 C 20.886719 25.085938 20.851562 25.078125 20.820312 25.066406 L 20.53125 25.105469 C 20.453125 25.105469 20.4375 25.046875 20.394531 25.03125 C 20.355469 25.003906 20.304688 25.003906 20.265625 25.03125 C 20.191406 25.066406 20.121094 25.109375 20.054688 25.160156 C 19.914062 25.242188 19.789062 25.34375 19.683594 25.46875 C 19.617188 25.5625 19.632812 25.613281 19.566406 25.714844 C 19.503906 25.816406 19.347656 25.875 19.242188 26.015625 C 19.207031 26.078125 19.171875 26.144531 19.148438 26.214844 C 19.089844 26.257812 19.03125 26.296875 18.964844 26.328125 C 18.9375 26.339844 18.902344 26.347656 18.882812 26.359375 C 18.855469 26.382812 18.832031 26.414062 18.816406 26.449219 L 18.710938 26.566406 C 18.65625 26.648438 18.609375 26.738281 18.570312 26.828125 C 18.570312 26.902344 18.6875 26.933594 18.625 27.035156 L 18.597656 27.070312 C 18.523438 27.121094 18.503906 27.050781 18.453125 27.042969 C 18.398438 27.035156 18.285156 27.109375 18.226562 27.0625 C 18.167969 27.011719 18.207031 26.964844 18.203125 26.925781 C 18.199219 26.882812 18.164062 26.851562 18.148438 26.8125 C 18.140625 26.722656 18.113281 26.640625 18.066406 26.566406 C 18.027344 26.503906 17.980469 26.484375 17.949219 26.566406 L 17.921875 26.632812 C 17.882812 26.539062 17.902344 26.460938 17.828125 26.445312 C 17.75 26.433594 17.699219 26.554688 17.644531 26.625 C 17.566406 26.722656 17.472656 26.808594 17.367188 26.871094 L 17.21875 27.023438 L 17.128906 27.085938 C 17.082031 27.152344 17.046875 27.222656 17.027344 27.300781 L 16.921875 27.730469 C 16.902344 27.820312 16.863281 27.976562 16.769531 27.992188 C 16.714844 28.003906 16.660156 28.003906 16.605469 27.992188 C 16.578125 27.972656 16.546875 27.953125 16.515625 27.9375 C 16.449219 27.945312 16.378906 27.9375 16.320312 27.914062 C 16.273438 27.871094 16.207031 27.792969 16.164062 27.773438 C 16.121094 27.761719 16.074219 27.761719 16.035156 27.773438 C 15.976562 27.78125 15.917969 27.78125 15.863281 27.773438 C 15.75 27.742188 15.675781 27.574219 15.636719 27.480469 C 15.621094 27.433594 15.59375 27.390625 15.558594 27.359375 C 15.511719 27.320312 15.453125 27.390625 15.398438 27.375 C 15.328125 27.332031 15.261719 27.289062 15.199219 27.242188 C 15.1875 27.242188 15.152344 27.203125 15.132812 27.214844 C 15.113281 27.226562 15.105469 27.261719 15.097656 27.28125 C 15.09375 27.347656 15.121094 27.40625 15.167969 27.449219 C 15.167969 27.449219 15.21875 27.496094 15.1875 27.523438 C 15.160156 27.550781 15.066406 27.394531 15.011719 27.472656 C 15.011719 27.496094 15.011719 27.507812 14.992188 27.519531 L 14.972656 27.519531 L 14.921875 27.339844 L 14.921875 27.261719 L 14.847656 27.097656 L 14.761719 27.183594 L 14.738281 27.085938 L 14.710938 27.011719 C 14.695312 26.960938 14.652344 26.964844 14.605469 26.988281 C 14.558594 27.015625 14.46875 27.144531 14.421875 27.179688 C 14.371094 27.214844 14.316406 27.179688 14.273438 27.203125 C 14.222656 27.238281 14.183594 27.292969 14.171875 27.351562 L 14.078125 27.78125 C 14 28.035156 13.972656 28.300781 14.003906 28.566406 L 14.046875 28.769531 L 14.085938 29.046875 L 14.125 29.179688 L 14.144531 29.179688 C 14.125 29.003906 14.136719 28.824219 14.171875 28.648438 C 14.210938 28.507812 14.277344 28.480469 14.277344 28.304688 L 14.304688 28.445312 C 14.359375 28.382812 14.355469 28.34375 14.4375 28.304688 C 14.464844 28.34375 14.480469 28.382812 14.496094 28.429688 C 14.503906 28.480469 14.523438 28.527344 14.542969 28.574219 C 14.566406 28.609375 14.589844 28.644531 14.617188 28.675781 C 14.640625 28.714844 14.660156 28.757812 14.675781 28.800781 C 14.703125 28.875 14.726562 28.992188 14.816406 29.015625 C 14.839844 28.933594 14.851562 28.851562 14.84375 28.765625 C 14.84375 28.742188 14.84375 28.675781 14.875 28.660156 C 14.90625 28.640625 14.949219 28.742188 14.953125 28.769531 C 14.976562 28.859375 15.011719 28.949219 15.058594 29.03125 C 15.109375 29.125 15.152344 29.113281 15.21875 29.253906 L 15.238281 29.199219 C 15.265625 29.273438 15.238281 29.332031 15.308594 29.378906 C 15.296875 29.289062 15.296875 29.203125 15.308594 29.117188 C 15.308594 29.09375 15.351562 29.09375 15.371094 29.089844 L 15.421875 29.453125 C 15.425781 29.5 15.441406 29.542969 15.464844 29.578125 C 15.527344 29.636719 15.597656 29.578125 15.625 29.640625 L 15.667969 29.828125 C 15.703125 29.976562 15.75 30.121094 15.808594 30.261719 C 15.851562 30.363281 15.90625 30.460938 15.980469 30.546875 C 16.007812 30.578125 16.039062 30.617188 16.085938 30.601562 C 16.128906 30.585938 16.109375 30.535156 16.117188 30.5 C 16.125 30.460938 16.140625 30.441406 16.148438 30.410156 C 16.140625 30.355469 16.144531 30.296875 16.167969 30.246094 C 16.152344 30.3125 16.167969 30.320312 16.179688 30.386719 C 16.191406 30.476562 16.210938 30.5625 16.238281 30.648438 C 16.277344 30.773438 16.328125 30.890625 16.398438 31.003906 C 16.472656 31.082031 16.554688 31.15625 16.644531 31.21875 C 16.734375 31.308594 16.835938 31.394531 16.941406 31.46875 L 17.082031 31.566406 L 17.199219 31.640625 C 17.304688 31.695312 17.3125 31.601562 17.378906 31.59375 C 17.445312 31.636719 17.507812 31.6875 17.5625 31.742188 C 17.65625 31.824219 17.738281 31.914062 17.808594 32.011719 L 18.089844 32.3125 C 18.160156 32.382812 18.253906 32.515625 18.351562 32.527344 L 18.449219 32.527344 C 18.5625 32.566406 18.679688 32.578125 18.796875 32.5625 C 18.832031 32.554688 18.867188 32.539062 18.890625 32.507812 C 18.914062 32.476562 18.933594 32.429688 18.976562 32.425781 C 19.042969 32.445312 19.105469 32.46875 19.167969 32.496094 C 19.292969 32.566406 19.425781 32.621094 19.5625 32.664062 C 19.640625 32.6875 19.722656 32.640625 19.746094 32.5625 C 19.746094 32.546875 19.746094 32.527344 19.746094 32.507812 C 19.714844 32.421875 19.585938 32.335938 19.519531 32.203125 C 19.460938 32.089844 19.398438 31.976562 19.332031 31.867188 L 19.15625 31.65625 L 19.054688 31.492188 L 19.003906 31.421875 C 18.984375 31.382812 18.972656 31.339844 18.96875 31.296875 L 18.851562 30.992188 C 18.796875 30.890625 18.6875 30.898438 18.617188 30.746094 C 18.675781 30.816406 18.746094 30.871094 18.828125 30.910156 C 18.789062 30.8125 18.738281 30.714844 18.675781 30.625 L 18.574219 30.511719 C 18.625 30.5625 18.6875 30.601562 18.757812 30.617188 L 18.78125 30.53125 C 18.8125 30.441406 18.84375 30.425781 18.84375 30.320312 C 18.84375 30.140625 18.664062 29.875 18.640625 29.652344 C 18.636719 29.550781 18.644531 29.453125 18.664062 29.355469 L 18.664062 29.183594 C 18.664062 29.152344 18.679688 29.125 18.683594 29.078125 L 18.683594 28.960938 C 18.703125 28.910156 18.707031 28.859375 18.703125 28.808594 L 18.652344 28.628906 L 18.652344 28.519531 L 18.632812 28.351562 C 18.632812 28.21875 18.6875 28.160156 18.699219 28.070312 C 18.691406 28.007812 18.664062 27.945312 18.625 27.894531 C 18.589844 27.875 18.519531 27.894531 18.542969 27.839844 C 18.570312 27.78125 18.667969 27.878906 18.691406 27.910156 C 18.714844 27.835938 18.710938 27.757812 18.675781 27.6875 L 18.636719 27.40625 C 18.617188 27.335938 18.570312 27.296875 18.566406 27.261719 C 18.5625 27.230469 18.609375 27.230469 18.644531 27.183594 C 18.679688 27.136719 18.699219 27.082031 18.703125 27.023438 L 18.703125 26.839844 C 18.722656 26.738281 18.789062 26.652344 18.882812 26.609375 C 18.980469 26.589844 19.074219 26.6875 19.128906 26.683594 C 19.183594 26.679688 19.210938 26.621094 19.226562 26.589844 L 19.351562 26.234375 L 19.375 26.234375 C 19.425781 26.324219 19.476562 26.339844 19.554688 26.410156 L 19.617188 26.480469 C 19.617188 26.480469 19.648438 26.480469 19.667969 26.464844 C 19.71875 26.382812 19.738281 26.285156 19.722656 26.191406 C 19.710938 26.148438 19.664062 26.109375 19.644531 26.054688 C 19.648438 26.019531 19.65625 25.984375 19.679688 25.953125 C 19.691406 25.882812 19.722656 25.816406 19.765625 25.761719 C 19.875 25.65625 20.042969 25.640625 20.167969 25.722656 C 20.230469 25.773438 20.222656 25.808594 20.246094 25.835938 C 20.273438 25.867188 20.335938 25.871094 20.351562 25.933594 C 20.355469 25.972656 20.355469 26.007812 20.351562 26.042969 C 20.367188 26.09375 20.367188 26.148438 20.351562 26.195312 C 20.304688 26.257812 20.265625 26.320312 20.230469 26.390625 C 20.199219 26.480469 20.253906 26.484375 20.230469 26.5625 C 20.207031 26.636719 20.148438 26.699219 20.128906 26.777344 C 20.105469 26.851562 20.105469 26.863281 20.054688 26.902344 C 20.007812 26.921875 19.957031 26.929688 19.90625 26.925781 C 19.847656 26.945312 19.796875 26.972656 19.746094 27.003906 C 19.742188 27.027344 19.75 27.050781 19.761719 27.070312 C 19.777344 27.132812 19.832031 27.128906 19.882812 27.109375 C 19.9375 27.09375 20.078125 27.03125 20.160156 27.097656 C 20.246094 27.164062 20.257812 27.367188 20.316406 27.441406 C 20.367188 27.476562 20.425781 27.496094 20.484375 27.5 C 20.527344 27.515625 20.566406 27.539062 20.601562 27.566406 C 20.683594 27.632812 20.660156 27.6875 20.695312 27.738281 C 20.730469 27.792969 20.761719 27.753906 20.796875 27.796875 L 20.957031 28.042969 L 21.058594 27.945312 C 21.097656 27.984375 21.136719 27.980469 21.144531 27.925781 C 21.136719 27.882812 21.125 27.839844 21.109375 27.800781 C 21.167969 27.855469 21.199219 27.9375 21.1875 28.019531 C 21.1875 28.042969 21.1875 28.066406 21.1875 28.085938 C 21.203125 28.144531 21.234375 28.199219 21.277344 28.238281 C 21.3125 28.265625 21.359375 28.265625 21.394531 28.238281 C 21.429688 28.160156 21.46875 28.085938 21.511719 28.011719 C 21.558594 27.957031 21.652344 27.9375 21.738281 27.832031 C 21.71875 27.832031 21.648438 27.796875 21.65625 27.765625 C 21.664062 27.734375 21.738281 27.714844 21.777344 27.6875 C 21.839844 27.636719 21.882812 27.5625 21.894531 27.480469 L 21.765625 27.480469 L 21.6875 27.464844 L 21.582031 27.464844 L 21.480469 27.386719 L 21.328125 27.386719 C 21.355469 27.335938 21.375 27.300781 21.433594 27.296875 C 21.492188 27.289062 21.511719 27.296875 21.53125 27.296875 C 21.550781 27.296875 21.566406 27.234375 21.597656 27.210938 C 21.652344 27.144531 21.738281 27.121094 21.75 27.035156 C 21.800781 27.042969 21.847656 27.042969 21.898438 27.035156 C 21.992188 27.070312 22.015625 27.230469 22.058594 27.316406 C 21.949219 27.28125 21.96875 27.375 21.964844 27.453125 C 22.007812 27.429688 22.054688 27.367188 22.097656 27.355469 L 22.234375 27.355469 C 22.261719 27.347656 22.285156 27.339844 22.308594 27.328125 C 22.382812 27.308594 22.429688 27.359375 22.46875 27.421875 C 22.507812 27.394531 22.507812 27.375 22.46875 27.332031 L 22.519531 27.332031 L 22.492188 27.25 C 22.4375 27.25 22.425781 27.25 22.410156 27.300781 C 22.382812 27.277344 22.34375 27.261719 22.308594 27.265625 L 22.347656 27.230469 L 22.347656 27.207031 C 22.253906 27.164062 22.347656 27.128906 22.375 27.078125 C 22.382812 27.050781 22.375 27.023438 22.355469 27.003906 L 22.492188 26.949219 C 22.546875 26.878906 22.59375 26.925781 22.621094 26.847656 C 22.730469 26.871094 22.691406 26.734375 22.777344 26.703125 C 22.796875 26.703125 22.832031 26.703125 22.851562 26.703125 L 22.945312 26.664062 C 22.980469 26.664062 23.015625 26.65625 23.046875 26.644531 C 23.085938 26.613281 23.121094 26.574219 23.148438 26.527344 C 23.175781 26.503906 23.199219 26.476562 23.214844 26.445312 C 23.21875 26.40625 23.214844 26.367188 23.203125 26.328125 C 23.242188 26.339844 23.285156 26.328125 23.308594 26.296875 C 23.328125 26.277344 23.328125 26.25 23.308594 26.230469 C 23.300781 26.222656 23.292969 26.214844 23.28125 26.214844 L 23.226562 26.214844 L 23.375 26.082031 L 23.402344 25.949219 L 23.363281 25.949219 L 23.375 25.882812 L 23.257812 25.882812 L 23.355469 25.765625 C 23.402344 25.730469 23.457031 25.738281 23.480469 25.667969 C 23.363281 25.703125 23.257812 25.773438 23.183594 25.867188 L 23.078125 26.007812 L 23.078125 25.960938 C 22.972656 25.996094 22.976562 26.058594 22.9375 26.082031 L 22.917969 26.097656 C 22.949219 26.097656 22.734375 26.097656 22.769531 26.097656 C 22.707031 26.082031 22.652344 26.046875 22.605469 26.003906 C 22.574219 25.976562 22.546875 25.945312 22.503906 25.96875 L 22.316406 25.804688 C 22.335938 25.78125 22.34375 25.769531 22.316406 25.75 C 22.289062 25.730469 22.238281 25.714844 22.191406 25.6875 C 22.109375 25.617188 22.113281 25.554688 22.101562 25.457031 C 22.097656 25.402344 22.082031 25.347656 22.054688 25.296875 C 22.042969 25.269531 22.03125 25.242188 22.011719 25.21875 C 21.976562 25.179688 21.9375 25.148438 21.894531 25.121094 C 21.847656 25.074219 21.792969 25.042969 21.730469 25.027344 C 21.65625 25.027344 21.597656 25.058594 21.527344 25.046875 C 21.453125 25.03125 21.398438 24.960938 21.328125 24.933594 C 21.28125 24.925781 21.234375 24.925781 21.1875 24.933594 C 21.1875 24.910156 21.1875 24.867188 21.160156 24.859375 C 21.113281 24.859375 21.066406 24.863281 21.023438 24.875 C 20.980469 24.875 20.964844 24.84375 20.929688 24.835938 C 20.863281 24.828125 20.792969 24.832031 20.730469 24.855469 C 20.707031 24.867188 20.730469 24.898438 20.730469 24.921875 Z M 28.382812 23.835938 C 28.472656 23.964844 28.605469 24.0625 28.753906 24.113281 C 28.722656 24.070312 28.683594 24.035156 28.636719 24.011719 C 28.558594 23.945312 28.476562 23.890625 28.390625 23.839844 Z M 27.527344 23.40625 L 27.5 23.355469 C 27.546875 23.363281 27.585938 23.390625 27.617188 23.429688 C 27.628906 23.453125 27.632812 23.484375 27.636719 23.515625 C 27.636719 23.578125 27.753906 23.71875 27.820312 23.71875 C 27.839844 23.71875 27.839844 23.71875 27.859375 23.71875 L 27.808594 23.515625 C 27.78125 23.484375 27.753906 23.496094 27.714844 23.457031 L 27.492188 23.195312 C 27.492188 23.175781 27.429688 23.117188 27.4375 23.082031 C 27.445312 23.050781 27.507812 23.054688 27.53125 23.054688 L 27.324219 22.867188 C 27.300781 22.847656 27.265625 22.808594 27.222656 22.820312 C 27.179688 22.832031 27.164062 22.890625 27.144531 22.925781 C 27.125 22.960938 27.101562 22.992188 27.105469 23.03125 C 27.125 23.074219 27.15625 23.117188 27.191406 23.148438 L 27.382812 23.308594 C 27.417969 23.351562 27.46875 23.386719 27.523438 23.410156 Z M 30.292969 23.382812 C 30.257812 23.21875 30.171875 23.070312 30.046875 22.953125 L 29.863281 22.796875 C 29.78125 22.6875 29.691406 22.585938 29.601562 22.484375 C 29.484375 22.386719 29.390625 22.363281 29.289062 22.285156 L 29.109375 22.128906 L 28.789062 21.882812 C 28.703125 21.804688 28.617188 21.722656 28.542969 21.636719 C 28.480469 21.542969 28.5 21.511719 28.464844 21.472656 C 28.417969 21.433594 28.367188 21.40625 28.308594 21.390625 L 28.324219 21.347656 L 28.246094 21.3125 C 28.292969 21.21875 28.230469 21.246094 28.164062 21.164062 C 28.140625 21.136719 28.140625 21.09375 28.097656 21.03125 C 28.035156 20.960938 27.960938 20.902344 27.875 20.859375 L 27.488281 20.648438 C 27.351562 20.566406 27.203125 20.511719 27.046875 20.484375 C 26.953125 20.503906 26.855469 20.527344 26.765625 20.5625 C 26.660156 20.585938 26.464844 20.582031 26.402344 20.667969 C 26.335938 20.753906 26.503906 20.894531 26.5625 20.953125 L 26.726562 21.125 C 26.769531 21.167969 26.808594 21.214844 26.839844 21.265625 C 26.90625 21.308594 26.964844 21.355469 27.019531 21.410156 C 27.058594 21.460938 26.992188 21.476562 27.046875 21.550781 C 27.097656 21.621094 27.15625 21.679688 27.207031 21.75 C 27.257812 21.824219 27.226562 21.855469 27.265625 21.886719 C 27.300781 21.917969 27.335938 21.886719 27.367188 21.886719 C 27.398438 21.886719 27.574219 21.792969 27.613281 21.820312 C 27.699219 21.890625 27.78125 21.964844 27.859375 22.046875 C 27.882812 22.066406 27.929688 22.117188 27.921875 22.148438 C 27.914062 22.179688 27.761719 22.148438 27.800781 22.214844 C 27.8125 22.234375 27.917969 22.289062 27.953125 22.320312 L 28.085938 22.4375 L 28.238281 22.550781 C 28.273438 22.582031 28.3125 22.644531 28.339844 22.65625 C 28.371094 22.667969 28.445312 22.605469 28.5 22.640625 C 28.613281 22.695312 28.695312 22.851562 28.8125 22.949219 C 28.863281 22.976562 28.921875 22.996094 28.980469 23.007812 C 29.03125 23.039062 29.082031 23.074219 29.132812 23.109375 C 29.222656 23.15625 29.234375 23.109375 29.339844 23.214844 C 29.476562 23.328125 29.605469 23.449219 29.722656 23.582031 C 29.789062 23.652344 29.863281 23.710938 29.949219 23.753906 L 29.980469 23.753906 L 30.101562 23.691406 C 30.101562 23.660156 30.101562 23.613281 30.101562 23.582031 C 30.101562 23.550781 30.128906 23.535156 30.132812 23.492188 C 30.140625 23.449219 30.132812 23.394531 30.167969 23.382812 C 30.199219 23.371094 30.253906 23.417969 30.277344 23.425781 Z M 27.6875 20.605469 C 27.683594 20.574219 27.671875 20.542969 27.65625 20.511719 C 27.601562 20.421875 27.511719 20.355469 27.410156 20.324219 C 27.378906 20.324219 27.277344 20.296875 27.261719 20.324219 C 27.246094 20.355469 27.351562 20.449219 27.382812 20.464844 C 27.425781 20.488281 27.464844 20.511719 27.5 20.542969 C 27.554688 20.574219 27.617188 20.59375 27.679688 20.601562 Z M 23.511719 19.703125 C 23.625 19.699219 23.738281 19.71875 23.84375 19.757812 C 23.949219 19.824219 24.0625 19.867188 24.183594 19.890625 L 24.023438 19.710938 L 24.117188 19.652344 C 24.082031 19.625 24.042969 19.601562 24 19.585938 C 23.976562 19.566406 23.976562 19.546875 23.953125 19.527344 L 23.855469 19.527344 C 23.792969 19.542969 23.730469 19.5625 23.667969 19.585938 C 23.605469 19.601562 23.519531 19.621094 23.515625 19.699219 Z M 24.164062 19.421875 C 24.148438 19.476562 24.097656 19.492188 24.046875 19.527344 C 24.046875 19.527344 24.046875 19.546875 24.070312 19.554688 C 24.152344 19.578125 24.234375 19.597656 24.316406 19.609375 C 24.421875 19.609375 24.429688 19.546875 24.5625 19.523438 L 24.722656 19.496094 C 24.890625 19.496094 25.054688 19.464844 25.214844 19.410156 C 25.164062 19.339844 25.132812 19.339844 25.050781 19.316406 C 24.929688 19.28125 24.800781 19.28125 24.675781 19.316406 C 24.5625 19.347656 24.566406 19.394531 24.414062 19.40625 L 24.171875 19.40625 Z M 24.164062 19.421875 "/>
<path style=" stroke:none;fill-rule:nonzero;fill:rgb(100%,100%,100%);fill-opacity:1;" d="M 60.308594 22.515625 C 59.46875 23.339844 58.335938 23.792969 57.160156 23.777344 C 55.902344 23.78125 54.699219 23.28125 53.808594 22.394531 C 52.921875 21.503906 52.421875 20.300781 52.425781 19.042969 C 52.425781 17.171875 53.53125 15.480469 55.242188 14.722656 C 56.949219 13.964844 58.945312 14.285156 60.332031 15.539062 L 59.9375 15.898438 C 58.699219 14.800781 56.933594 14.53125 55.425781 15.210938 C 53.917969 15.886719 52.945312 17.390625 52.945312 19.042969 C 52.945312 20.660156 53.871094 22.132812 55.328125 22.835938 C 56.785156 23.535156 58.511719 23.339844 59.777344 22.332031 L 59.777344 19.511719 L 60.308594 19.511719 Z M 60.308594 22.515625 "/>
<path style=" stroke:none;fill-rule:nonzero;fill:rgb(100%,100%,100%);fill-opacity:1;" d="M 64.21875 18.546875 C 63.636719 18.371094 63.101562 18.0625 62.660156 17.644531 C 62.011719 16.863281 62.066406 15.714844 62.789062 15 C 63.507812 14.28125 64.652344 14.230469 65.433594 14.882812 C 65.632812 15.070312 65.785156 15.308594 65.871094 15.570312 L 65.402344 15.753906 C 65.328125 15.5625 65.210938 15.386719 65.0625 15.242188 C 64.5 14.6875 63.59375 14.6875 63.03125 15.242188 C 62.757812 15.511719 62.605469 15.878906 62.605469 16.261719 C 62.605469 16.644531 62.757812 17.007812 63.03125 17.277344 C 63.347656 17.574219 63.714844 17.816406 64.117188 17.988281 C 64.816406 18.207031 65.457031 18.589844 65.980469 19.105469 C 66.503906 19.609375 66.796875 20.308594 66.785156 21.035156 C 66.78125 22.460938 65.6875 23.648438 64.269531 23.765625 C 62.847656 23.878906 61.574219 22.886719 61.339844 21.480469 L 61.832031 21.300781 C 61.945312 22.273438 62.679688 23.054688 63.640625 23.234375 C 64.597656 23.414062 65.5625 22.945312 66.019531 22.082031 C 66.472656 21.214844 66.3125 20.15625 65.621094 19.464844 C 65.21875 19.066406 64.742188 18.753906 64.21875 18.546875 Z M 64.21875 18.546875 "/>
<path style=" stroke:none;fill-rule:nonzero;fill:rgb(100%,100%,100%);fill-opacity:1;" d="M 67.941406 23.667969 L 67.941406 14.417969 L 68.460938 14.417969 L 68.460938 23.148438 L 72.042969 23.148438 L 72.042969 23.667969 Z M 67.941406 23.667969 "/>
<path style=" stroke:none;fill-rule:nonzero;fill:rgb(100%,100%,100%);fill-opacity:1;" d="M 74.023438 14.417969 L 77.496094 20.429688 L 80.960938 14.417969 L 81.554688 14.417969 L 81.535156 14.457031 L 81.535156 23.667969 L 81.011719 23.667969 L 81.011719 15.359375 L 77.496094 21.453125 L 73.96875 15.359375 L 73.96875 23.667969 L 73.453125 23.667969 L 73.453125 14.457031 L 73.425781 14.417969 Z M 74.023438 14.417969 "/>
<path style=" stroke:none;fill-rule:nonzero;fill:rgb(100%,100%,100%);fill-opacity:1;" d="M 88.8125 14.417969 L 89.339844 14.417969 L 89.339844 21.058594 C 89.253906 21.738281 88.941406 22.375 88.453125 22.855469 C 87.589844 23.726562 86.289062 23.984375 85.160156 23.519531 C 84.03125 23.050781 83.292969 21.945312 83.292969 20.722656 L 83.292969 14.417969 L 83.820312 14.417969 L 83.820312 20.730469 C 83.863281 22.078125 84.964844 23.148438 86.3125 23.148438 C 87.660156 23.148438 88.761719 22.078125 88.804688 20.730469 Z M 88.8125 14.417969 "/>
<path style=" stroke:none;fill-rule:nonzero;fill:rgb(100%,100%,100%);fill-opacity:1;" d="M 91.058594 14.417969 L 91.632812 14.417969 L 96.382812 22.644531 L 96.382812 14.417969 L 96.902344 14.417969 L 96.902344 23.667969 L 96.382812 23.667969 L 91.582031 15.359375 L 91.582031 23.667969 L 91.058594 23.667969 Z M 91.058594 14.417969 "/>
<path style=" stroke:none;fill-rule:nonzero;fill:rgb(100%,100%,100%);fill-opacity:1;" d="M 53.816406 33.375 C 54.457031 32.898438 55.019531 32.476562 55.507812 32.109375 C 56 31.742188 56.453125 31.328125 56.871094 30.878906 C 57.28125 30.445312 57.503906 29.871094 57.5 29.277344 C 57.496094 28.105469 56.582031 27.140625 55.410156 27.078125 C 54.242188 27.011719 53.226562 27.867188 53.089844 29.03125 L 52.566406 28.839844 C 52.652344 28.265625 52.925781 27.730469 53.339844 27.324219 C 54.125 26.535156 55.308594 26.296875 56.335938 26.71875 C 57.367188 27.140625 58.039062 28.144531 58.042969 29.257812 C 58.050781 30 57.765625 30.710938 57.253906 31.246094 C 56.863281 31.664062 56.4375 32.042969 55.980469 32.378906 L 54.328125 33.609375 C 53.746094 34.019531 53.339844 34.632812 53.183594 35.328125 L 58.042969 35.328125 L 58.042969 35.851562 L 52.59375 35.851562 C 52.773438 34.675781 53.179688 33.851562 53.816406 33.375 Z M 53.816406 33.375 "/>
<path style=" stroke:none;fill-rule:nonzero;fill:rgb(100%,100%,100%);fill-opacity:1;" d="M 65.699219 32.867188 C 65.699219 34.621094 64.277344 36.042969 62.527344 36.042969 C 60.773438 36.042969 59.351562 34.621094 59.351562 32.867188 L 59.351562 29.804688 C 59.351562 28.050781 60.773438 26.632812 62.527344 26.632812 C 64.277344 26.632812 65.699219 28.050781 65.699219 29.804688 Z M 65.152344 29.804688 C 65.105469 28.386719 63.945312 27.261719 62.527344 27.261719 C 61.109375 27.261719 59.945312 28.386719 59.902344 29.804688 L 59.902344 32.867188 C 59.945312 34.285156 61.109375 35.414062 62.527344 35.414062 C 63.945312 35.414062 65.105469 34.285156 65.152344 32.867188 Z M 65.152344 29.804688 "/>
<path style=" stroke:none;fill-rule:nonzero;fill:rgb(100%,100%,100%);fill-opacity:1;" d="M 68.261719 33.375 L 69.949219 32.109375 C 70.441406 31.742188 70.898438 31.328125 71.3125 30.878906 C 71.722656 30.445312 71.949219 29.871094 71.941406 29.277344 C 71.9375 28.105469 71.023438 27.140625 69.855469 27.078125 C 68.6875 27.011719 67.667969 27.867188 67.535156 29.03125 L 67.011719 28.839844 C 67.097656 28.265625 67.371094 27.730469 67.785156 27.324219 C 68.570312 26.535156 69.75 26.300781 70.78125 26.722656 C 71.808594 27.144531 72.480469 28.144531 72.484375 29.257812 C 72.492188 30 72.210938 30.710938 71.695312 31.246094 C 71.308594 31.664062 70.882812 32.042969 70.425781 32.378906 L 68.773438 33.609375 C 68.191406 34.019531 67.78125 34.632812 67.628906 35.328125 L 72.484375 35.328125 L 72.484375 35.851562 L 67.039062 35.851562 C 67.214844 34.675781 67.621094 33.851562 68.261719 33.375 Z M 68.261719 33.375 "/>
<path style=" stroke:none;fill-rule:nonzero;fill:rgb(100%,100%,100%);fill-opacity:1;" d="M 75.480469 33.375 C 76.117188 32.898438 76.679688 32.476562 77.171875 32.109375 C 77.664062 31.742188 78.121094 31.328125 78.535156 30.878906 C 78.945312 30.445312 79.167969 29.871094 79.164062 29.277344 C 79.160156 28.105469 78.246094 27.140625 77.078125 27.078125 C 75.910156 27.011719 74.890625 27.867188 74.757812 29.03125 L 74.230469 28.839844 C 74.316406 28.265625 74.589844 27.730469 75.003906 27.324219 C 75.789062 26.527344 76.976562 26.28125 78.011719 26.707031 C 79.046875 27.128906 79.722656 28.136719 79.71875 29.257812 C 79.726562 30 79.441406 30.710938 78.929688 31.246094 C 78.542969 31.664062 78.117188 32.042969 77.660156 32.378906 L 76.003906 33.609375 C 75.425781 34.019531 75.015625 34.632812 74.863281 35.328125 L 79.71875 35.328125 L 79.71875 35.851562 L 74.261719 35.851562 C 74.4375 34.675781 74.84375 33.851562 75.480469 33.375 Z M 75.480469 33.375 "/>
</g>
</svg>
